HIERARCHY
ROOT Hips
{
	OFFSET 0.00000 0.00000 0.00000
	CHANNELS 6 Xposition Yposition Zposition Zrotation Yrotation Xrotation 
	JOINT LHipJoint
	{
		OFFSET 0 0 0
		CHANNELS 3 Zrotation Yrotation Xrotation
		JOINT LeftHip
		{
			OFFSET 1.76014 -1.80163 0.38499
			CHANNELS 3 Zrotation Yrotation Xrotation
			JOINT LeftKnee
			{
				OFFSET 2.46817 -6.78126 0.00000
				CHANNELS 3 Zrotation Yrotation Xrotation
				JOINT LeftAnkle
				{
					OFFSET 2.79348 -7.67503 0.00000
					CHANNELS 3 Zrotation Yrotation Xrotation
					JOINT LeftToe
					{
						OFFSET 0.09421 -0.25885 1.91403
						CHANNELS 3 Zrotation Yrotation Xrotation
						End Site
						{
							OFFSET 0.00000 -0.00000 0.97975
						}
					}
				}
			}
		}
	}
	JOINT RHipJoint
	{
		OFFSET 0 0 0
		CHANNELS 3 Zrotation Yrotation Xrotation
		JOINT RightHip
		{
			OFFSET -1.77926 -1.80163 0.38499
			CHANNELS 3 Zrotation Yrotation Xrotation
			JOINT RightKnee
			{
				OFFSET -2.51996 -6.92353 0.00000
				CHANNELS 3 Zrotation Yrotation Xrotation
				JOINT RightAnkle
				{
					OFFSET -2.76109 -7.58603 0.00000
					CHANNELS 3 Zrotation Yrotation Xrotation
					JOINT RightToe
					{
						OFFSET -0.08067 -0.22163 1.86812
						CHANNELS 3 Zrotation Yrotation Xrotation
						End Site
						{
							OFFSET -0.00000 -0.00000 0.95558
						}
					}
				}
			}
		}
	}
	JOINT lowerback
	{
		OFFSET 0 0 0
		CHANNELS 3 Zrotation Yrotation Xrotation
		JOINT Chest
		{
			OFFSET 0.05537 1.92033 -0.03713
			CHANNELS 3 Zrotation Yrotation Xrotation
			JOINT Chest2
			{
				OFFSET 0.04452 1.90073 0.10860
				CHANNELS 3 Zrotation Yrotation Xrotation
				JOINT lowerneck
				{
					OFFSET 0 0 0
					CHANNELS 3 Zrotation Yrotation Xrotation
					JOINT Neck
					{
						OFFSET 0.00903 1.74649 0.02074
						CHANNELS 3 Zrotation Yrotation Xrotation
						JOINT Head
						{
							OFFSET -0.08608 1.67844 -0.12081
							CHANNELS 3 Zrotation Yrotation Xrotation
							End Site
							{
								OFFSET -0.03521 1.83380 -0.05059
							}
						}
					}
				}
				JOINT LeftCollar
				{
					OFFSET 0 0 0
					CHANNELS 3 Zrotation Yrotation Xrotation
					JOINT LeftShoulder
					{
						OFFSET 3.28197 0.84325 -0.19106
CHANNELS 3 Zrotation Xrotation Yrotation
						JOINT LeftElbow
						{
OFFSET 0 -5.243180 -0.000000
CHANNELS 3 Zrotation Xrotation Yrotation
							JOINT LeftWrist
							{
OFFSET 0 -2.989990 0.000000
CHANNELS 3 Zrotation Xrotation Yrotation
								JOINT lhand
								{
									OFFSET 0 0 0
CHANNELS 3 Zrotation Xrotation Yrotation
									JOINT LFingers
									{
OFFSET 0 -0.726740 0.000000
CHANNELS 3 Zrotation Xrotation Yrotation
										End Site
										{
OFFSET 0 -0.585920 0.000000
										}
									}
								}
								JOINT LThumb
								{
OFFSET 0 0.000000 0.000000
CHANNELS 3 Zrotation Xrotation Yrotation
									End Site
									{
OFFSET 0 -0.594870 0.594870
									}
								}
							}
						}
					}
				}
				JOINT RightCollar
				{
					OFFSET 0 0 0
					CHANNELS 3 Zrotation Yrotation Xrotation
					JOINT RightShoulder
					{
						OFFSET -3.30963 0.78377 0.14264
CHANNELS 3 Zrotation Xrotation Yrotation
						JOINT RightElbow
						{
OFFSET 0 -5.370450 0.000000
CHANNELS 3 Zrotation Xrotation Yrotation
							JOINT RightWrist
							{
OFFSET 0 -2.927920 0.000000
CHANNELS 3 Zrotation Xrotation Yrotation
								JOINT rhand
								{
									OFFSET 0 0 0
CHANNELS 3 Zrotation Xrotation Yrotation
									JOINT RFingers
									{
OFFSET 0 -0.784500 0.000000
CHANNELS 3 Zrotation Xrotation Yrotation
										End Site
										{
OFFSET 0 -0.632480 0.000000
										}
									}
								}
								JOINT RThumb
								{
OFFSET 0 0.000000 0.000000
CHANNELS 3 Zrotation Xrotation Yrotation
									End Site
									{
OFFSET 0 -0.642140 0.642140
									}
								}
							}
						}
					}
				}
			}
		}
	}
}
MOTION
Frames: 4
Frame Time: 0.008333333333333333
0.235100 18.278200 0.881800 -3.309900 -5.650100 12.819100 0.000000 0.000000 0.000000 -15.710100 -33.776300 0.221400 0.643000 5.130100 14.280000 -2.393200 29.909700 -27.623800 0.135900 2.376300 6.546900 0.000000 0.000000 0.000000 20.413200 15.060700 -3.921900 0.000000 0.000000 -0.000000 0.547100 -12.974600 -4.534400 -0.219800 3.018200 -8.329400 3.884800 -0.325300 -5.765100 3.302700 -0.670200 -2.752200 1.178400 -0.351800 0.391000 4.451700 1.433700 -6.610800 -7.671100 1.892700 2.952300 -3.239600 0.786200 2.264300 0.000000 0.000000 0.000000 41.080900 7.758100 -107.900400 102.208100 -59.429300 70.552200 41.492500 4.466100 -4.670000 0.000000 0.000000 0.000000 -7.125000 0.000000 0.000000 12.413300 35.963300 2.811300 0.000000 0.000000 0.000000 -45.674600 17.150500 101.366000 -117.799500 -56.868400 -83.821900 -56.718800 -1.263700 -25.171800 0.000000 0.000000 0.000000 7.125000 0.000000 -0.000000 -15.424400 -9.320900 -18.341400
0.244354 18.279315 0.855860 -3.231949 -5.776625 13.058417 0.000000 0.000000 0.000000 -15.655151 -34.094224 0.018603 0.630094 5.079328 14.134861 -2.524739 30.335609 -27.562567 0.128204 2.298604 6.332085 0.000000 0.000000 0.000000 20.183749 15.284646 -4.270440 0.000000 0.000000 0.000000 0.551102 -13.026236 -4.342859 -0.245689 3.189594 -8.807094 3.882392 -0.346157 -5.723634 3.399736 -0.695193 -2.778723 1.278897 -0.364632 0.341490 4.462848 1.579539 -6.707899 -7.953486 2.106723 3.093949 -3.333465 0.881688 2.351324 0.000000 0.000000 0.000000 40.921161 7.734908 -108.024106 102.004579 -59.448417 70.377059 41.389538 4.292769 -4.503762 0.000000 0.000000 0.000000 -7.125000 0.000000 0.000000 12.302363 35.741232 2.853317 0.000000 0.000000 0.000000 -45.954997 16.972890 101.573564 -117.755962 -56.878844 -83.785479 -57.017877 -1.621920 -25.552254 0.000000 0.000000 0.000000 7.125000 0.000000 0.000000 -15.468175 -10.006738 -18.548340
0.253570 18.276920 0.847017 -3.152889 -5.928243 13.105981 0.000000 0.000000 0.000000 -15.757211 -34.092651 0.064240 0.615185 5.019657 13.964698 -2.671003 30.683029 -27.169280 0.089870 1.932344 5.318724 0.000000 0.000000 0.000000 20.007430 15.441192 -4.356880 0.000000 0.000000 0.000000 0.549470 -13.005980 -4.382794 -0.208803 2.940777 -8.114039 4.054726 -0.378821 -5.774999 3.471221 -0.764381 -2.537850 1.250424 -0.395319 0.616478 4.501125 1.690389 -7.041788 -8.064096 2.271590 3.488813 -3.378709 0.949867 2.561716 0.000000 0.000000 0.000000 40.644553 7.826458 -107.537207 101.583018 -59.486920 70.013906 41.757006 5.380326 -4.937340 0.000000 0.000000 0.000000 -7.125000 0.000000 0.000000 12.676006 36.327820 2.757866 0.000000 0.000000 0.000000 -45.807283 16.926949 101.055439 -117.817392 -56.864001 -83.836927 -57.206340 -1.196143 -25.319412 0.000000 0.000000 0.000000 7.125000 0.000000 0.000000 -15.639106 -9.829770 -18.729006
0.241706 18.279368 0.838432 -3.019931 -6.007847 12.948748 0.000000 0.000000 0.000000 -15.868502 -33.537497 0.036773 0.607065 4.987182 13.872051 -2.598286 30.334476 -26.878259 0.094706 1.983837 5.461085 0.000000 0.000000 0.000000 20.045166 15.663874 -4.725382 -0.003668 -0.390479 1.073001 0.532794 -12.806751 -4.982418 -0.181664 2.744356 -7.567778 4.199690 -0.409492 -5.457765 3.371890 -0.799003 -2.361457 1.066468 -0.412439 0.617851 4.829851 1.695369 -7.427948 -8.109193 2.248319 3.666644 -3.463682 0.932519 2.701461 0.000000 0.000000 0.000000 40.966867 7.601738 -107.619013 101.544193 -59.490365 69.980388 41.520073 5.643484 -4.913987 0.000000 0.000000 0.000000 -7.125000 0.000000 0.000000 12.472474 36.281982 2.726070 0.000000 0.000000 0.000000 -45.300462 16.987494 100.545490 -117.770763 -56.875265 -83.797873 -57.473194 -0.993556 -25.299105 0.000000 0.000000 0.000000 7.125000 0.000000 0.000000 -15.787008 -9.980200 -18.952897
